<?xml version="1.0" encoding="utf-8"?>
<!-- Generator: Adobe Illustrator 19.2.1, SVG Export Plug-In . SVG Version: 6.00 Build 0)  -->
<svg version="1.1" id="Capa_1" xmlns="http://www.w3.org/2000/svg" xmlns:xlink="http://www.w3.org/1999/xlink" x="0px" y="0px"
	 viewBox="0 0 682 1010" style="enable-background:new 0 0 682 1010;" xml:space="preserve">
<style type="text/css">
	.st0{fill:#CA0026;}
	.st1{fill:#FFFFFF;}
	.st2{fill-rule:evenodd;clip-rule:evenodd;fill:#81003F;}
	.st3{fill-rule:evenodd;clip-rule:evenodd;fill:#FFB300;}
	.st4{fill:#FFB300;}
</style>
<g>
	<g>
		<rect x="84.8" y="324.8" class="st0" width="253.2" height="292"/>
		<rect x="344" y="324.8" class="st1" width="253.2" height="292"/>
		<path class="st0" d="M344,622.9v324.4c39-0.1,77.4-3.9,114.5-11c79-15,138.6-84.4,138.6-167.7V622.9"/>
		<path class="st1" d="M338,947.3V622.9H84.8v145.7c0,83.3,59.5,152.5,138.2,167.6C260.4,943.4,298.8,947.2,338,947.3"/>
		<path class="st2" d="M166.4,851.1L166.4,851.1c1.6-0.1,3.6-0.2,5.6-0.5c0,0-13.1-20,1-36.5c0,0,10.2-17.6,29.9-5.2
			c0,0,8.4,8.6,9,22.3c0,0-11.7,0.6-18.5,19.9c-2.4,7-4.2,16.7-4.6,29.7h-7.8c0,0-2.4-6.8-1.2-10.2c0,0-10.6,1.7-13.5,0.6
			c0,0-2.4,7.4,0.4,10.2l-8.4-1.2c0,0-2.2-6.2-1.6-10.2c0,0-4.6,0-7.4-2.2c0,0-4.4,5.1-4.4,9.6l-8.4-3.9c0,0,1-6.9,3.4-8.5
			c0,0-11.5-2.3-13.7-4.1l-1.8-9.7l-7.8-41.6c0,0,20.9-6.3,28.3,14.3c0,0,1.6,11.3-0.6,21.1c0,0,1,5.2,13.9,6.2
			C160.6,851.2,163.2,851.2,166.4,851.1"/>
		<path class="st2" d="M163,799.1c0.8-2.3,2-5.8,3.4-7.2c0,0-13.1-2.3-14.7-3.5l-6.2,9.1l-9.6-2.8l3.4-7.4l-14.3-5.2l-3.8,7.4
			l-8-4.6l4.6-8l-12.5-4.6v-45.5c0,0,22.7-2.2,22.1,20.1c-0.2,3.6-0.8,7.9-2.4,13c0,0,19.3,5.1,26.1,1.7c0,0,18.1,24.4,26.5,29
			c0,0-3,3.5-5.2,8.4c-0.4,0.7-0.8,1.6-1,2.5h-9C162.4,801.5,162.6,800.5,163,799.1"/>
		<path class="st2" d="M174.4,747c-5.2,2.6-10.9,5.1-17.1,7.2l-5.2-6.8c0,0,32.3-8.8,47-26.9l10.6-1.1
			C209.8,719.4,198.3,734.9,174.4,747"/>
		<path class="st2" d="M203.2,747c18.3-13.8,38-34.7,44-63l-5.8-12c0,0-0.8,41.7-54.7,75c-7.2,4.4-15.5,8.9-24.9,13l6.8,7.4
			C168.6,767.4,185.1,760.7,203.2,747"/>
		<path class="st2" d="M214,747L214,747c-10.6,9.4-24.3,18.5-41.4,26l6,6.3c0,0,23.9-7.4,48.2-32.3c10.6-11,21.5-25.4,30.3-44.2
			l-5-10.9C252.2,692,244.8,720.5,214,747"/>
		<path class="st2" d="M235.7,747c-11.9,12.7-28.9,26.6-53,36.9l6.8,5.1c0,0,31.3-13.7,56.9-41.9c5.4-6.2,10.9-13.1,15.5-20.7
			l-2.8-13.7C259,712.6,252.8,728.6,235.7,747"/>
		<path class="st2" d="M283.5,717.2c-1.4-16.5-8.2-26.5-9.6-33.4c-0.8-3-4-11.8-0.4-16.9c6.4-9.1,17.7-8.5,24.9,7.5h8.4
			c0,0-3.2-20.6-21.9-21.1c0,0-23.1-0.6-22.1,22.8c0,0,2.6,15.5,9.2,32.1c0,0,6.6,11.8-0.8,26.6c0,0-3.4,5.7-5.8,12.2
			c-1.6,3.9-2.8,8.3-2.6,11.7l8,8c-1.2-9,2-16.4,3.4-19.7C275.9,743.7,284.9,733.1,283.5,717.2"/>
		<path class="st2" d="M286.5,778.7l-8.4-5.7c0,0-1.2-13.7,4.6-23.9c0,0,0.2-0.7,0.8-2.1c2.4-5.2,7.8-18.9,7-27l6.2,9.6
			c0,0,0.4,8.4-4.8,17.4C288.2,753.8,283.1,769.6,286.5,778.7"/>
		<path class="st2" d="M284.3,851.1L284.3,851.1c1.4,0.1,2.8,0.2,4,0.1v6.8c0,0-5.6,0.6-7.4-0.6c0,0,0.6,8,0,12.1
			c0,0,6.8,1.7,8.4,1.7l-0.6,9c0,0-6-1.1-7.8-2.8l-0.6,7.5c0,0,4.6,2.2,7.4,1.6l0.6,8.6c0,0-8-0.6-10.2-2.8l-2.8,10.9h-50.8
			c0,0-1.2-37.7,34-17.1c0,0,12.9-5.7-4.6-34.8c0,0-2.2,0-5.4-0.1c-15.9-0.5-28.9-11.3-33.6-34.2c0,0-2.2-10.6-8.8-17.9
			c-2.6-2.8-5.8-5.1-9.6-6c0,0,33.2-16.5,40.6-26.9c0,0-10.6,17.1,4,27.4c0,0,4.8,2.1,10.9,5.6c8,4.4,18.1,11.2,21.9,19
			c0,0,31.5,7.3,29.7-19c0-1.4-2-8-6.6-14.4c-3-4.3-6.4-15.3-0.6-27.6c0,0,2.6-5.1,4.4-10c0.6-2.2,1.2-4.3,1.2-5.9l2,5.9l2.6,8.5
			c0,0-7.6,6.2-5.4,18.6c1.6,8.9,9,15.5,11.3,24.9c0.6,5.1,0.4,13-3.8,19.1c-2.4,3.6-14.3,16-36,9c0,0-3.4,14.9,7.4,22.8
			C279.9,850,282.1,850.7,284.3,851.1"/>
		<path class="st2" d="M298,679.4l10.2,0.1c0,0,12.3,8.5-0.2,31.9c0,0-1.6,5.7,0,9C308,720.5,286.5,708,298,679.4"/>
		<path class="st2" d="M184.9,722.8c0,0-17.5,13.1-28.1,14.3c0,0-4.6,1.1-9,5.7l-7.4-4.6c0,0,0-6.3,7.4-8c0,0-13.1-9.1-14.1-13.1
			c0,0-5.6,1.7-7.4,6.8l-6.2-5.7c0,0,4-4.6,8.4-6.3c0,0-9-12-9.4-16.5v-41.6c0,0,29.9-3,16.3,32.4
			C135.2,686.3,152.1,714.8,184.9,722.8"/>
		<path class="st2" d="M208.2,700.6c0,0-1.2-3-13.1,2.8c0,0-4,3.9-10.2-1.7c0,0-7.2-10.9-18.1-4.1c0,0,6.8,0.6,11.5,8
			c0,0,5,11.5,17.5,4.1C195.7,709.8,202,701.1,208.2,700.6"/>
		<path class="st2" d="M206.4,674.8h-7.2l7.6-7.3C206.4,668.1,204.4,670.4,206.4,674.8 M233.5,661.8h-27.1c0,0-20.9,12.6-27.1,27.4
			l13.7,10.2c0,0,1-14.2,15.3-10.7c0,0,20.3,14.8-6.8,19.9c0,0,10,12,19.1-4.6C220.4,704,234.7,676.1,233.5,661.8z"/>
		<polyline class="st2" points="205.6,654.4 205,641.3 211.8,648.7 219.2,640.1 227.1,649.8 233.9,640.1 234.9,654.4 		"/>
		<path class="st2" d="M429.6,547.6L429.6,547.6c1.8,0,3.6-0.2,5.6-0.4c0,0-12.9-20,1.2-36.5c0,0,10.2-17.8,29.9-5.2
			c0,0,8.4,8.5,9,22.2c0,0-11.9,0.6-18.5,19.9c-2.6,7.2-4.4,16.8-4.6,29.8h-8c0,0-2.2-6.9-1-10.4c0,0-10.9,1.7-13.7,0.6
			c0,0-2.2,7.4,0.6,10.2l-8.4-1.1c0,0-2.2-6.3-1.8-10.2c0,0-4.4,0-7.2-2.3c0,0-4.6,5.2-4.6,9.7l-8.4-3.9c0,0,1.2-6.9,3.4-8.6
			c0,0-11.3-2.2-13.5-3.9l-1.8-9.9L380,506c0,0,20.9-6.2,28.1,14.3c0,0,1.8,11.5-0.4,21.1c0,0,1,5.3,13.9,6.2
			C423.8,547.7,426.6,547.8,429.6,547.6"/>
		<path class="st2" d="M426.4,495.5c0.6-2.3,1.8-5.7,3.2-7.2c0,0-12.9-2.2-14.7-3.3l-6.2,9l-9.6-2.8l3.4-7.4l-14.1-5.1l-4,7.4
			l-7.8-4.6l4.6-8l-12.5-4.6l-0.2-45.6c0,0,22.9-2.1,22.3,20.1v0.1c-0.2,3.6-0.8,7.8-2.4,12.8c0,0,19.3,5.2,25.9,1.7
			c0,0,18.1,24.5,26.5,29.1c0,0-2.8,3.3-5,8.4v-0.1c-0.4,0.9-0.8,1.7-1,2.6h-9c0,0,0.2-1.1,0.6-2.5"/>
		<path class="st2" d="M437.8,443.6c-5.2,2.6-10.9,5.1-17.3,7.2l-5-6.9c0,0,32.3-8.6,46.8-26.8l10.9-1.1
			C473.2,415.9,461.8,431.4,437.8,443.6"/>
		<path class="st2" d="M466.6,443.6c18.1-13.8,38-34.7,43.8-63l-5.6-12c0,0-0.8,41.6-54.9,75c-7.2,4.4-15.5,8.8-24.7,12.8l6.6,7.4
			C431.8,463.8,448.5,457.1,466.6,443.6"/>
		<path class="st2" d="M477.4,443.6L477.4,443.6c-10.9,9.4-24.3,18.4-41.6,26l6.2,6.2c0,0,23.9-7.4,48.2-32.2
			c10.6-11.1,21.5-25.5,30.3-44.2l-5.2-10.9C515.4,388.6,508.2,416.9,477.4,443.6"/>
		<path class="st2" d="M499.1,443.6c-11.9,12.7-28.9,26.5-53,36.8l6.6,5.2c0,0,31.5-13.8,56.9-41.9c5.6-6.3,10.9-13.2,15.5-20.8
			l-2.8-13.7C522.2,409,516.2,425.2,499.1,443.6"/>
		<path class="st2" d="M547,413.7c-1.4-16.7-8.2-26.5-9.8-33.4c-0.6-3-4-11.8-0.4-17c6.6-9,17.9-8.5,25.1,7.5h8.4
			c0,0-3.4-20.5-21.9-21.1c0,0-23.3-0.5-22.1,22.8c0,0,2.6,15.7,9.2,32.2c0,0,6.6,11.8-0.8,26.6c0,0-3.4,5.7-6,12.2
			c-1.4,3.9-2.6,8.3-2.4,11.7l7.8,8c-1-9,2.2-16.5,3.6-19.7C539.1,440.2,548.4,429.5,547,413.7"/>
		<path class="st2" d="M550,475.3l-8.4-5.7c0,0-1.2-13.8,4.4-24.1c0,0,0.4-0.7,1-2c2.2-5.2,7.8-18.9,7-27.1l6,9.7
			c0,0,0.6,8.4-4.6,17.4C551.6,450.2,546.6,466.1,550,475.3"/>
		<path class="st2" d="M547.8,547.6L547.8,547.6c1.4,0.2,2.8,0.4,3.8,0.1v6.9c0,0-5.6,0.5-7.2-0.6c0,0,0.6,8,0,12
			c0,0,6.8,1.7,8.4,1.7l-0.6,9.1c0,0-6.2-1.1-7.8-2.8l-0.6,7.4c0,0,4.4,2.3,7.4,1.7l0.4,8.5c0,0-7.8-0.5-10-2.8l-2.8,10.9h-50.8
			c0,0-1.2-37.6,33.8-17.1c0,0,13.1-5.7-4.4-34.8c0,0-2.2,0.1-5.4-0.1c-15.9-0.5-29.1-11.2-33.6-34c0,0-2.4-10.7-9-17.9v-0.1
			c-2.4-2.7-5.6-5.1-9.6-6c0,0,33.4-16.5,40.8-26.8c0,0-10.9,17.1,3.8,27.4c0,0,5,2.1,11.1,5.4c7.8,4.6,17.9,11.3,21.7,19.1
			c0,0,31.7,7.3,29.9-19.1v0.1c0-1.5-2-8-6.6-14.4c-3-4.3-6.4-15.4-0.6-27.6c0,0,2.6-5.2,4.2-10c0.8-2.2,1.4-4.3,1.4-5.9l1.8,5.9
			l2.6,8.4c0,0-7.6,6.2-5.4,18.7c1.6,8.9,9.2,15.5,11.3,24.9c0.8,5.1,0.6,13-3.6,19.1c-2.4,3.6-14.5,15.9-36,9
			c0,0-3.4,14.8,7.2,22.8C543.1,546.6,545.3,547.2,547.8,547.6"/>
		<path class="st2" d="M561.2,376l10.2,0.1c0,0,12.5,8.4,0,31.8c0,0-1.8,5.7,0,9.1C571.5,417.1,550,404.5,561.2,376"/>
		<path class="st2" d="M448.3,419.4c0,0-17.5,13.1-28.3,14.2c0,0-4.4,1.1-8.8,5.7l-7.4-4.6c0,0,0-6.2,7.4-7.9
			c0,0-13.1-9.1-14.3-13.2c0,0-5.6,1.7-7.2,6.9l-6.2-5.7c0,0,3.8-4.6,8.4-6.3c0,0-9-12.1-9.6-16.7v-41.4c0,0,29.9-3,16.5,32.3
			C398.7,382.8,415.5,411.4,448.3,419.4"/>
		<path class="st2" d="M471.4,397.1c0,0-1-2.8-12.9,2.8c0,0-4,4.1-10.2-1.7c0,0-7.4-10.9-18.1-3.9c0,0,6.8,0.6,11.3,8
			c0,0,5.2,11.3,17.5,3.9C458.9,406.2,465.2,397.7,471.4,397.1"/>
		<path class="st2" d="M469.8,371.4h-7.4l7.8-7.3C469.6,364.6,467.8,367,469.8,371.4 M496.9,358.3h-27.1c0,0-20.9,12.5-27.1,27.4
			l13.5,10.2c0,0,1.2-14.3,15.3-10.9c0,0,20.3,14.8-6.8,20c0,0,10.2,12,19.3-4.6C483.9,400.5,497.9,372.5,496.9,358.3z"/>
		<polyline class="st2" points="469,350.9 468.4,337.7 475.2,345.1 482.5,336.6 490.3,346.4 497.1,336.6 498.3,350.9 		"/>
		<path class="st3" d="M409.7,715.6h33.8v-34.2l3.2-2.6v-2.6h-17.3v6h-6v-5.9l-17.1-0.1v3.2l3.4,2.6 M432,697.8c0-3-2.4-5.3-5.2-5.3
			c-3,0-5.4,2.3-5.4,5.3v11.3H432V697.8z M401.3,721.5h24.9v7.6h14.1v-7.4H463v7.4h16.3v-7.4h25.3v7.4h14.3v-7.6h25.3v8.8l-6.4,9.1
			H408.3l-7-9.7V721.5z M452.5,661.9l16.1-0.1v8.1l6.8-0.1v-8h16.3v3.3l-3.8,2.6v48.2h-31.9v-48l-3.4-2.6V661.9z M477.2,690
			c0-2.8-2.2-5.3-5.2-5.2c-2.8,0-5.2,2.3-5.2,5.2v17.4h10.6L477.2,690z M504,716.4h33.6v-34.2l3.4-2.6v-2.6h-17.3v6h-6v-5.9
			l-17.1-0.1v3.2l3.4,2.6V716.4z M526.1,698.7c0-3-2.2-5.3-5.2-5.3c-2.8,0-5.2,2.3-5.2,5.3V710h10.6L526.1,698.7z M493.7,832.1h58.7
			l-15.3-85.6H409.3l-16.7,83.9h59.5l0.8-47.7c0-5.3,9-9.6,20.3-9.6c11.3,0,20.3,4.3,20.3,9.6L493.7,832.1z M390.6,837.8h61.3v16.5
			H377v-5.9L390.6,837.8z M554.4,838.6h-61.1v16.5H560l5.4-6.5L554.4,838.6z M434,780.8c0-4.1-3.2-7.4-7.2-7.4
			c-4.2,0-7.4,3.3-7.4,7.4v16H434V780.8z M524.9,781.9c0-4.1-3.4-7.4-7.4-7.4c-4,0-7.2,3.3-7.4,7.4l0.2,16.2l14.7-0.1V781.9z
			 M539.7,881.7l19.3-19.1H376.4v19.1H539.7z"/>
		<path class="st3" d="M145.3,412.6h33.6v-34l3.2-2.7v-2.5h-16.9v6h-6.6v-5.9l-17.3-0.1v3.2l3.8,2.6 M167.4,394.9
			c0-2.8-2.4-5.3-5.2-5.3c-3,0-5.2,2.5-5.2,5.3v11.3h10.4V394.9z M138.1,418.5H163v7.6h13.9v-7.4h22.9v7.4h16.1v-7.4h25.3v7.4h14.1
			v-7.6h25.3v8.8l-6.2,9.1H145.1l-6.8-9.7L138.1,418.5z M189.3,358.6h15.9v8h6.8v-8l16.5-0.1v3.5l-3.8,2.6V413h-31.7v-48.4l-3.6-2.6
			V358.6z M214.6,387.2c0-2.8-2.4-5.3-5.2-5.3c-3,0-5.2,2.3-5.2,5.3v17.3h10.4V387.2z M240.5,413.5h33.6v-34l3.2-2.7v-2.5h-16.9v6
			h-6.6v-5.9l-17.3-0.1v3.2l3.8,2.6L240.5,413.5z M262.6,395.7c0-2.8-2.4-5.3-5.2-5.3c-3,0-5.2,2.5-5.2,5.3v11.3h10.4V395.7z
			 M230.3,528.9h58.5l-15.1-85.5H146.1l-16.7,83.8h59.3l0.8-47.7c0-5.3,9.2-9.6,20.3-9.6c11.3,0,20.3,4.3,20.3,9.6L230.3,528.9z
			 M127.6,534.6h60.9V551h-74.7v-5.9L127.6,534.6z M290.8,535.3h-60.9v16.5h74.5v-6L290.8,535.3z M170.8,477.2
			c0-4.1-3.4-7.4-7.4-7.4c-4,0-7.2,3.3-7.2,7.4v16l14.7-0.1V477.2z M261.2,477.1c0-4.1-3.2-7.4-7.2-7.4c-4.2,0-7.4,3.3-7.4,7.4v16
			h14.9L261.2,477.1z M113.1,559.3h191.7v19H113.1V559.3z"/>
		<path d="M458.5,936.3L458.5,936.3c-37.2,7-75.5,10.9-114.5,11V622.9h253.2v145.7C597.2,852,537.5,921.3,458.5,936.3 M84.8,768.6
			V622.9H338v324.4c-39.2-0.1-77.6-3.9-114.9-11.1C144.3,921,84.8,851.8,84.8,768.6z M338,324.9v291.8H84.8V324.9H338z M597.2,324.9
			v291.8H344V324.9H597.2z M78.6,317.3v454.6c0,85.1,60.9,156.2,141.7,171.7c39,7.5,79.4,11.3,120.8,11.3
			c41.2,0,81.4-3.8,120.4-11.3v0.1c81-15.4,142.1-86.6,142.1-171.8V317.3H78.6z"/>
		<path class="st4" d="M341,251.8c-72.5,0-142.3,11.5-207.6,32.7L121.2,247c69.3-22.4,143.1-34.7,219.8-34.7s150.5,12.2,219.8,34.7
			l-12.3,37.5C483.3,263.2,413.5,251.8,341,251.8"/>
		<path class="st4" d="M584.5,174.3c-8,24.9-31.5,42.8-59.1,42.8c-34.2,0-61.9-27.6-61.9-61.9c0-3.2,0.2-6.4,0.8-9.6l15.5,2.5
			c-0.4,2.3-0.4,4.7-0.4,7.2c0,25.5,20.5,46.3,46,46.3c20.7,0,38-13.4,44-31.9L584.5,174.3"/>
		<path class="st4" d="M464.4,145.6c-4.6,29.7-30.3,52.5-61.5,52.5c-34.2,0-62.1-27.9-62.1-62.2h15.9v0.1
			c0,25.4,20.7,46.1,46.2,46.1c23.1,0,42.2-16.9,45.6-39.1l15.7,2.5"/>
		<path class="st4" d="M217.4,145.6c4.6,29.7,30.3,52.5,61.3,52.5c34.4,0,62.1-27.9,62.1-62.2h-15.9v0.1c0,25.4-20.7,46.1-46.2,46.1
			c-23.1,0-42.2-16.9-45.6-39.1L217.4,145.6"/>
		<path class="st4" d="M97.3,174.3c8,24.9,31.3,42.8,58.9,42.8c34.2,0,61.9-27.6,61.9-61.9c0-3.2-0.2-6.4-0.6-9.6h-0.2l-15.5,2.5
			c0.4,2.3,0.6,4.7,0.6,7.2c0,25.5-20.7,46.3-46.2,46.3c-20.5,0-38-13.4-44-31.9"/>
		<polyline class="st4" points="344.6,110 360.3,94.3 391.6,94.3 376.2,110 391.6,125.7 360.3,125.7 		"/>
		<polyline class="st4" points="594.8,142.1 584.7,122.5 594.4,92.5 604.6,112.1 		"/>
		<polyline class="st4" points="588.9,148.5 578.9,128.8 549,119.1 559,138.9 539.3,149 569.3,158.8 		"/>
		<polyline class="st4" points="465,119.4 447.1,132.6 415.9,127.7 433.8,114.5 421,96.5 451.9,101.4 		"/>
		<polyline class="st4" points="471.8,120.5 489.7,107.3 520.8,112.3 502.9,125.5 515.8,143.5 484.7,138.5 		"/>
		<polyline class="st4" points="469.6,112.1 456.3,94.3 461.4,63.2 474.4,81.1 492.5,68.1 487.5,99.2 		"/>
		<polyline class="st4" points="341,102.2 325.1,86.5 325.1,55 341,70.7 356.7,55 356.7,86.5 		"/>
		<polyline class="st4" points="337.4,110 321.7,94.3 290.4,94.3 305.8,110 290.4,125.7 321.7,125.7 		"/>
		<polyline class="st4" points="87,142.1 97.3,122.5 87.6,92.5 77.4,112.1 		"/>
		<polyline class="st4" points="93.1,148.5 102.9,128.8 132.8,119.1 123,138.9 142.7,149 112.7,158.8 		"/>
		<polyline class="st4" points="217,119.4 234.9,132.6 266.1,127.7 248.2,114.5 261,96.5 230.1,101.4 		"/>
		<polyline class="st4" points="210.2,120.5 192.3,107.3 161.2,112.3 179.1,125.5 166.2,143.5 197.1,138.5 		"/>
		<polyline class="st4" points="212.4,112.1 225.5,94.3 220.6,63.2 207.4,81.1 189.5,68.1 194.3,99.2 		"/>
	</g>
</g>
</svg>
